<?xml version="1.0" encoding="UTF-8" standalone="no"?>
<!DOCTYPE svg PUBLIC "-//W3C//DTD SVG 1.1//EN" "http://www.w3.org/Graphics/SVG/1.1/DTD/svg11.dtd">
<svg version="1.1" xmlns="http://www.w3.org/2000/svg" xmlns:xlink="http://www.w3.org/1999/xlink" preserveAspectRatio="xMidYMid meet" viewBox="0 0 639 637" width="639" height="637"><defs><path d="M615.1 13.5C621.95 13.5 627.5 19.05 627.5 25.9C627.5 146.02 627.5 493.98 627.5 614.1C627.5 620.95 621.95 626.5 615.1 626.5C494.58 626.5 145.42 626.5 24.9 626.5C18.05 626.5 12.5 620.95 12.5 614.1C12.5 493.98 12.5 146.02 12.5 25.9C12.5 19.05 18.05 13.5 24.9 13.5C145.42 13.5 494.58 13.5 615.1 13.5Z" id="b230bKB6tO"></path><path d="M223 22.5L423 22.5L423 222.5L223 222.5L223 22.5Z" id="hoyKHt7pl"></path><path d="M23 222.5L223 222.5L223 422.5L23 422.5L23 222.5Z" id="a2UPNU04gp"></path><path d="M423 222.5L623 222.5L623 422.5L423 422.5L423 222.5Z" id="b4brvcrYh"></path><path d="M220 422.5L420 422.5L420 622.5L220 622.5L220 422.5Z" id="b1Zcm4iZXF"></path></defs><g><g><g><g><use xlink:href="#b230bKB6tO" opacity="1" fill-opacity="0" stroke="#2bc83b" stroke-width="22" stroke-opacity="1"></use></g></g><g><use xlink:href="#hoyKHt7pl" opacity="1" fill="#2bc83b" fill-opacity="1"></use></g><g><use xlink:href="#a2UPNU04gp" opacity="1" fill="#2bc83b" fill-opacity="1"></use></g><g><use xlink:href="#b4brvcrYh" opacity="1" fill="#2bc83b" fill-opacity="1"></use></g><g><use xlink:href="#b1Zcm4iZXF" opacity="1" fill="#2bc83b" fill-opacity="1"></use></g></g></g></svg>